<?xml version="1.0" encoding="UTF-8" standalone="no"?>
<svg width="20px" height="20px" viewBox="0 0 20 20" version="1.1" xmlns="http://www.w3.org/2000/svg" xmlns:xlink="http://www.w3.org/1999/xlink" xmlns:sketch="http://www.bohemiancoding.com/sketch/ns">
    <!-- Generator: Sketch 3.3.3 (12081) - http://www.bohemiancoding.com/sketch -->
    <title>facebook_footer</title>
    <desc>Created with Sketch.</desc>
    <defs></defs>
    <g id="Page-1" stroke="none" stroke-width="1" fill="none" fill-rule="evenodd" sketch:type="MSPage">
        <g id="facebook_footer" sketch:type="MSArtboardGroup" fill="#FF0D55">
            <g id="Imported-EPS" sketch:type="MSLayerGroup">
                <path d="M18.8934682,0 L1.1065896,0 C0.497052023,0 0,0.497052023 0,1.1065896 L0,18.8934682 C0,19.5028324 0.497052023,20 1.1065896,20 L10.6936416,20 L10.6936416,12.2543353 L8.09248555,12.2543353 L8.09248555,9.24855491 L10.6936416,9.24855491 L10.6936416,7.01156069 C10.6936416,4.42907514 12.2586127,3.02289017 14.5624277,3.02289017 C15.665896,3.02289017 16.5895954,3.10508671 16.8786127,3.1417341 L16.8786127,5.84057803 L15.2955491,5.84132948 C14.0427746,5.84132948 13.8150289,6.4367052 13.8150289,7.31034682 L13.8150289,9.24855491 L16.7865318,9.24855491 L16.3974566,12.2543353 L13.8150289,12.2543353 L13.8150289,20 L18.8934682,20 C19.5027746,20 20,19.5028324 20,18.8934682 L20,1.1065896 C20,0.497052023 19.5027746,0 18.8934682,0" id="Page-1" sketch:type="MSShapeGroup"></path>
            </g>
        </g>
    </g>
</svg>