<?xml version="1.0" encoding="UTF-8" standalone="no"?>
<svg width="16px" height="16px" viewBox="0 0 16 16" version="1.1" xmlns="http://www.w3.org/2000/svg" xmlns:xlink="http://www.w3.org/1999/xlink" xmlns:sketch="http://www.bohemiancoding.com/sketch/ns">
    <!-- Generator: Sketch 3.3.3 (12081) - http://www.bohemiancoding.com/sketch -->
    <title>facebook_share</title>
    <desc>Created with Sketch.</desc>
    <defs></defs>
    <g id="Page-1" stroke="none" stroke-width="1" fill="none" fill-rule="evenodd" sketch:type="MSPage">
        <g id="facebook_share" sketch:type="MSArtboardGroup" fill="#FF0D55">
            <g id="Imported-EPS" sketch:type="MSLayerGroup">
                <path d="M15.1147746,0 L0.885271676,0 C0.397641618,0 0,0.397641618 0,0.885271676 L0,15.1147746 C0,15.6022659 0.397641618,16 0.885271676,16 L8.55491329,16 L8.55491329,9.80346821 L6.47398844,9.80346821 L6.47398844,7.39884393 L8.55491329,7.39884393 L8.55491329,5.60924855 C8.55491329,3.54326012 9.80689017,2.41831214 11.6499422,2.41831214 C12.5327168,2.41831214 13.2716763,2.48406936 13.5028902,2.51338728 L13.5028902,4.67246243 L12.2364393,4.67306358 C11.2342197,4.67306358 11.0520231,5.14936416 11.0520231,5.84827746 L11.0520231,7.39884393 L13.4292254,7.39884393 L13.1179653,9.80346821 L11.0520231,9.80346821 L11.0520231,16 L15.1147746,16 C15.6022197,16 16,15.6022659 16,15.1147746 L16,0.885271676 C16,0.397641618 15.6022197,0 15.1147746,0" id="Page-1" sketch:type="MSShapeGroup"></path>
            </g>
        </g>
    </g>
</svg>