<?xml version="1.0" encoding="UTF-8" standalone="no"?>
<svg width="138px" height="24px" viewBox="0 0 138 24" version="1.1" xmlns="http://www.w3.org/2000/svg" xmlns:xlink="http://www.w3.org/1999/xlink" xmlns:sketch="http://www.bohemiancoding.com/sketch/ns">
    <!-- Generator: Sketch 3.4.4 (17249) - http://www.bohemiancoding.com/sketch -->
    <title>logo</title>
    <desc>Created with Sketch.</desc>
    <defs></defs>
    <g id="Page-1" stroke="none" stroke-width="1" fill="none" fill-rule="evenodd" sketch:type="MSPage">
        <g id="logo" sketch:type="MSArtboardGroup">
            <g id="Imported-Layers" sketch:type="MSLayerGroup" transform="translate(0.000000, 1.000000)">
                <path d="M124.352227,12.0065882 C124.352227,11.0649412 125.121897,10.3025882 126.069402,10.3025882 C127.016907,10.3025882 127.785155,11.0649412 127.785155,12.0065882 C127.785155,12.9468235 127.016907,13.7091765 126.069402,13.7091765 C125.121897,13.7091765 124.352227,12.9468235 124.352227,12.0065882 L124.352227,12.0065882 Z M126.076515,22.0936471 C119.990289,22.0936471 115.040784,17.1807059 115.040784,11.1411765 C115.040784,5.10305882 119.990289,0.190117647 126.076515,0.190117647 C132.16132,0.190117647 137.110825,5.10305882 137.110825,11.1411765 C137.110825,17.1807059 132.16132,22.0936471 126.076515,22.0936471 L126.076515,22.0936471 Z M126.076515,2.20188235 C121.108515,2.20188235 117.06668,6.21129412 117.06668,11.1411765 C117.06668,16.0710588 121.108515,20.0818824 126.076515,20.0818824 C131.043093,20.0818824 135.084928,16.0710588 135.084928,11.1411765 C135.084928,6.21129412 131.043093,2.20188235 126.076515,2.20188235 L126.076515,2.20188235 Z M123.892701,7.28 C122.911052,7.74588235 121.348948,9.54870588 121.348948,11.8442353 C121.348948,14.6014118 123.296598,16.5552941 126.075093,16.5552941 C128.853588,16.5552941 130.88233,14.6014118 130.88233,11.8442353 C130.88233,7.45647059 127.082351,5.38117647 128.698515,3.77882353 C126.324062,3.77882353 124.249794,6.92988235 126.075093,8.74117647 C125.030845,8.73552941 124.35934,8.22588235 123.892701,7.28 L123.892701,7.28 Z" id="Fill-1" fill="#FF0D55" sketch:type="MSShapeGroup"></path>
                <path d="M4.13004124,17.8371765 L4.13004124,7.65835294 L0.324371134,7.65835294 L0.324371134,4.71341176 L11.5109072,4.71341176 L11.5109072,7.65835294 L7.70381443,7.65835294 L7.70381443,17.8371765 L4.13004124,17.8371765 L4.13004124,17.8371765 Z M14.6564536,17.8371765 L14.6564536,4.71341176 L19.8207835,4.71341176 C23.2167216,4.71341176 25.289567,5.83152941 25.289567,8.98823529 C25.289567,11.0451765 24.4146186,12.2324706 22.6803711,12.8183529 L25.4858969,17.8371765 L21.697299,17.8371765 L19.1421649,13.28 L18.1590928,13.28 L18.1590928,17.8371765 L14.6564536,17.8371765 L14.6564536,17.8371765 Z M18.1590928,10.5835294 L19.6970103,10.5835294 C21.1623711,10.5835294 21.8054227,10.1755294 21.8054227,9.07717647 C21.8054227,7.97741176 21.1623711,7.58635294 19.6970103,7.58635294 L18.1590928,7.58635294 L18.1590928,10.5835294 L18.1590928,10.5835294 Z M27.8816907,17.8371765 L32.563732,4.66117647 L35.8885361,4.66117647 L40.5705773,17.8371765 L36.9612371,17.8371765 L36.156,15.3891765 L31.9918144,15.3891765 L31.1353608,17.8371765 L27.8816907,17.8371765 L27.8816907,17.8371765 Z M32.8326186,12.872 L35.3521856,12.872 L34.1372165,9.23670588 L34.1016495,9.23670588 L32.8326186,12.872 L32.8326186,12.872 Z M43.5909278,17.8371765 L43.5909278,4.71341176 L47.164701,4.71341176 L47.164701,9.46682353 L50.8110309,4.71341176 L54.9567216,4.71341176 L50.508,9.89176471 L55.3493814,17.8371765 L51.3118144,17.8371765 L48.1833402,12.5882353 L47.164701,13.7585882 L47.164701,17.8371765 L43.5909278,17.8371765 L43.5909278,17.8371765 Z M58.3882268,17.8371765 L58.3882268,4.71341176 L67.5204124,4.71341176 L67.5204124,7.65835294 L61.962,7.65835294 L61.962,10.2828235 L65.8402268,10.2828235 L65.8402268,13.0484706 L61.962,13.0484706 L61.962,17.8371765 L58.3882268,17.8371765 L58.3882268,17.8371765 Z M70.7370928,4.71341176 L74.3122887,4.71341176 L74.3122887,17.8357647 L70.7370928,17.8357647 L70.7370928,4.71341176 Z M78.4935464,17.8371765 L78.4935464,4.71341176 L83.659299,4.71341176 C87.0552371,4.71341176 89.1280825,5.83152941 89.1280825,8.98823529 C89.1280825,11.0451765 88.253134,12.2324706 86.5188866,12.8183529 L89.3244124,17.8371765 L85.5358144,17.8371765 L82.9792577,13.28 L81.9976082,13.28 L81.9976082,17.8371765 L78.4935464,17.8371765 L78.4935464,17.8371765 Z M81.9976082,10.5835294 L83.5341031,10.5835294 C84.9994639,10.5835294 85.6425155,10.1755294 85.6425155,9.07717647 C85.6425155,7.97741176 84.9994639,7.58635294 83.5341031,7.58635294 L81.9976082,7.58635294 L81.9976082,10.5835294 L81.9976082,10.5835294 Z M92.9522474,17.8371765 L92.9522474,4.71341176 L102.388887,4.71341176 L102.388887,7.65835294 L96.5260206,7.65835294 L96.5260206,9.78588235 L100.708701,9.78588235 L100.708701,12.5529412 L96.5260206,12.5529412 L96.5260206,14.9825882 L102.691918,14.9825882 L102.691918,17.8371765 L92.9522474,17.8371765 L92.9522474,17.8371765 Z" id="Fill-2" fill="#FFFFFF" sketch:type="MSShapeGroup"></path>
            </g>
        </g>
    </g>
</svg>