<?xml version="1.0" encoding="UTF-8" standalone="no"?>
<svg width="24px" height="24px" viewBox="0 0 24 24" version="1.1" xmlns="http://www.w3.org/2000/svg" xmlns:xlink="http://www.w3.org/1999/xlink" xmlns:sketch="http://www.bohemiancoding.com/sketch/ns">
    <!-- Generator: Sketch 3.3.3 (12081) - http://www.bohemiancoding.com/sketch -->
    <title>logo_footer</title>
    <desc>Created with Sketch.</desc>
    <defs></defs>
    <g id="Page-1" stroke="none" stroke-width="1" fill="none" fill-rule="evenodd" sketch:type="MSPage">
        <g id="logo_footer" sketch:type="MSArtboardGroup" fill="#FFFFFF">
            <path d="M10.2818926,12.8686263 C10.2818926,11.92271 11.0491201,11.1569007 11.9936183,11.1569007 C12.9381164,11.1569007 13.7039257,11.92271 13.7039257,12.8686263 C13.7039257,13.8131245 12.9381164,14.5789338 11.9936183,14.5789338 C11.0491201,14.5789338 10.2818926,13.8131245 10.2818926,12.8686263 L10.2818926,12.8686263 Z M11.9992909,23.0014182 C5.93379746,23.0014182 1,18.0662025 1,11.9992909 C1,5.93379746 5.93379746,0.998581835 11.9992909,0.998581835 C18.0662025,0.998581835 23,5.93379746 23,11.9992909 C23,18.0662025 18.0662025,23.0014182 11.9992909,23.0014182 L11.9992909,23.0014182 Z M11.9992909,3.01946754 C7.04847547,3.01946754 3.01946754,7.04705731 3.01946754,11.9992909 C3.01946754,16.9515245 7.04847547,20.9805325 11.9992909,20.9805325 C16.9515245,20.9805325 20.9805325,16.9515245 20.9805325,11.9992909 C20.9805325,7.04705731 16.9515245,3.01946754 11.9992909,3.01946754 L11.9992909,3.01946754 Z M9.82382518,8.12060852 C8.84529105,8.58860311 7.28814543,10.3996003 7.28814543,12.7055373 C7.28814543,15.4752143 9.22961387,17.4379553 11.9992909,17.4379553 C14.768968,17.4379553 16.7912718,15.4752143 16.7912718,12.7055373 C16.7912718,8.2978792 13.003352,6.21317605 14.6143879,4.60355831 C12.2460517,4.60355831 10.1797847,7.7689035 11.9992909,9.58840972 C10.9569393,9.58273706 10.2889834,9.07077935 9.82382518,8.12060852 L9.82382518,8.12060852 Z" id="Imported-Layers" sketch:type="MSShapeGroup"></path>
        </g>
    </g>
</svg>