<?xml version="1.0" encoding="UTF-8" standalone="no"?>
<svg width="16px" height="16px" viewBox="0 0 16 16" version="1.1" xmlns="http://www.w3.org/2000/svg" xmlns:xlink="http://www.w3.org/1999/xlink" xmlns:sketch="http://www.bohemiancoding.com/sketch/ns">
    <!-- Generator: Sketch 3.3.3 (12081) - http://www.bohemiancoding.com/sketch -->
    <title>twitter_share</title>
    <desc>Created with Sketch.</desc>
    <defs></defs>
    <g id="Page-1" stroke="none" stroke-width="1" fill="none" fill-rule="evenodd" sketch:type="MSPage">
        <g id="twitter_share" sketch:type="MSArtboardGroup" fill="#FF0D55">
            <path d="M15.8628235,3.53289697 C15.2792157,3.79289697 14.652,3.96867273 13.9936471,4.04769697 C14.6655686,3.64312121 15.1816471,3.00241818 15.424549,2.23896364 C14.7957647,2.61367879 14.0992941,2.88573333 13.3579608,3.03227879 C12.7643922,2.39693333 11.9184314,2 10.9825098,2 C9.18517647,2 7.728,3.46372121 7.728,5.26914545 C7.728,5.52536364 7.75678431,5.77488485 7.81231373,6.01408485 C5.10752941,5.87778182 2.7094902,4.57620606 1.10439216,2.59831515 C0.824235294,3.08120606 0.663764706,3.64272727 0.663764706,4.24190909 C0.663764706,5.37613939 1.23827451,6.37674545 2.11152941,6.96300606 C1.57811765,6.94606667 1.07623529,6.79904848 0.637490196,6.55409697 C0.637176471,6.56780606 0.637176471,6.58143636 0.637176471,6.59522424 C0.637176471,8.17917576 1.75898039,9.50044848 3.24768627,9.80086667 C2.97466667,9.87563636 2.68721569,9.91566061 2.39035294,9.91566061 C2.18070588,9.91566061 1.97678431,9.89501818 1.77803922,9.85704242 C2.19223529,11.1556242 3.39411765,12.1009212 4.81819608,12.1272364 C3.70439216,13.0040667 2.30117647,13.5268242 0.776392157,13.5268242 C0.513647059,13.5268242 0.254588235,13.511303 0,13.4809697 C1.44023529,14.408697 3.15090196,14.9498909 4.98878431,14.9498909 C10.9748235,14.9498909 14.2483137,9.96829091 14.2483137,5.64819394 C14.2483137,5.50645455 14.2451765,5.36550303 14.238902,5.22526061 C14.8748235,4.76435152 15.4265098,4.18849091 15.8628235,3.53289697" id="Imported-Layers" sketch:type="MSShapeGroup"></path>
        </g>
    </g>
</svg>