<?xml version="1.0" encoding="UTF-8" standalone="no"?>
<svg width="20px" height="20px" viewBox="0 0 20 20" version="1.1" xmlns="http://www.w3.org/2000/svg" xmlns:xlink="http://www.w3.org/1999/xlink" xmlns:sketch="http://www.bohemiancoding.com/sketch/ns">
    <!-- Generator: Sketch 3.3.3 (12081) - http://www.bohemiancoding.com/sketch -->
    <title>twitter_footer</title>
    <desc>Created with Sketch.</desc>
    <defs></defs>
    <g id="Page-1" stroke="none" stroke-width="1" fill="none" fill-rule="evenodd" sketch:type="MSPage">
        <g id="twitter_footer" sketch:type="MSArtboardGroup" fill="#FF0D55">
            <path d="M19.8285294,3.88664242 C19.0990196,4.20664242 18.315,4.42298182 17.4920588,4.52024242 C18.3319608,4.02230303 18.9770588,3.23374545 19.2806863,2.29410909 C18.4947059,2.75529697 17.6241176,3.09013333 16.697451,3.27049697 C15.9554902,2.48853333 14.8980392,2 13.7281373,2 C11.4814706,2 9.66,3.80150303 9.66,6.02356364 C9.66,6.33890909 9.69598039,6.64601212 9.76539216,6.94041212 C6.38441176,6.77265455 3.38686275,5.17071515 1.3804902,2.73638788 C1.03029412,3.33071515 0.829705882,4.02181818 0.829705882,4.75927273 C0.829705882,6.15524848 1.54784314,7.38676364 2.63941176,8.10831515 C1.97264706,8.08746667 1.34529412,7.90652121 0.796862745,7.60504242 C0.796470588,7.62191515 0.796470588,7.63869091 0.796470588,7.65566061 C0.796470588,9.60513939 2.19872549,11.2313212 4.05960784,11.6010667 C3.71833333,11.6930909 3.35901961,11.7423515 2.98794118,11.7423515 C2.72588235,11.7423515 2.47098039,11.7169455 2.22254902,11.6702061 C2.74029412,13.2684606 4.24264706,14.431903 6.0227451,14.4642909 C4.6304902,15.5434667 2.87647059,16.1868606 0.970490196,16.1868606 C0.642058824,16.1868606 0.318235294,16.1677576 0,16.1304242 C1.80029412,17.2722424 3.93862745,17.9383273 6.23598039,17.9383273 C13.7185294,17.9383273 17.8103922,11.8071273 17.8103922,6.49008485 C17.8103922,6.31563636 17.8064706,6.14215758 17.7986275,5.96955152 C18.5935294,5.40227879 19.2831373,4.69352727 19.8285294,3.88664242" id="Imported-Layers" sketch:type="MSShapeGroup"></path>
        </g>
    </g>
</svg>